# Blender v2.82 (sub 7) OBJ File: 'aquarium.blend'
# www.blender.org
mtllib aquarium.mtl
o Cube_Cube.002
v -2.000000 -0.050000 1.000000
v -2.000000 0.050000 1.000000
v -2.000000 -0.050000 -1.000000
v -2.000000 0.050000 -1.000000
v 2.000000 -0.050000 1.000000
v 2.000000 0.050000 1.000000
v 2.000000 -0.050000 -1.000000
v 2.000000 0.050000 -1.000000
v -2.000000 0.150014 1.000000
v -2.000000 0.150014 -1.000000
v 2.000000 0.150014 -1.000000
v 2.000000 0.150014 1.000000
v -2.000000 -0.050000 0.900000
v -2.000000 0.050000 0.900000
v 2.000000 -0.050000 0.900000
v 2.000000 0.050000 0.900000
v -2.000000 0.150014 0.900000
v 2.000000 0.150014 0.900000
v -2.000000 0.050000 -0.905000
v 2.000000 -0.050000 -0.905000
v -2.000000 0.150014 -0.905000
v -2.000000 -0.050000 -0.905000
v 2.000000 0.050000 -0.905000
v 2.000000 0.150014 -0.905000
v -1.900000 -0.050000 -1.000000
v -1.900000 0.050000 -1.000000
v -1.900000 -0.050000 1.000000
v -1.900000 0.050000 1.000000
v -1.900000 0.150014 -1.000000
v -1.900000 0.150014 1.000000
v -1.900000 0.150014 0.900000
v -1.900000 -0.050000 0.900000
v -1.900000 -0.050000 -0.905000
v -1.900000 0.150014 -0.905000
v 1.902500 0.050000 -1.000000
v 1.902500 -0.050000 1.000000
v 1.902500 0.150014 -1.000000
v 1.902500 0.150014 0.900000
v 1.902500 0.150014 -0.905000
v 1.902500 -0.050000 -1.000000
v 1.902500 0.050000 1.000000
v 1.902500 0.150014 1.000000
v 1.902500 -0.050000 0.900000
v 1.902500 -0.050000 -0.905000
v -1.900000 0.150014 -0.905000
v -1.900000 0.150014 0.900000
v 1.902500 0.150014 0.900000
v 1.902500 0.150014 -0.905000
v -1.900000 0.048996 -0.905000
v -1.900000 0.048996 0.900000
v 1.902500 0.048996 0.900000
v 1.902500 0.048996 -0.905000
v -2.000000 1.650505 -0.905000
v -2.000000 1.650505 -1.000000
v 1.902500 1.650505 -1.000000
v 2.000000 1.650505 -1.000000
v 2.000000 1.650505 0.900000
v 2.000000 1.650505 1.000000
v -1.900000 1.650505 1.000000
v -2.000000 1.650505 1.000000
v -2.000000 1.650505 0.900000
v 2.000000 1.650505 -0.905000
v 1.902500 1.650505 0.900000
v 1.902500 1.650505 -0.905000
v -1.900000 1.650505 -1.000000
v 1.902500 1.650505 1.000000
v -1.900000 1.650505 0.900000
v -1.900000 1.650505 -0.905000
v -2.000000 1.750544 -0.905000
v -2.000000 1.750544 -1.000000
v 1.902500 1.750544 -1.000000
v 2.000000 1.750544 -1.000000
v 2.000000 1.750544 0.900000
v 2.000000 1.750544 1.000000
v -1.900000 1.750544 1.000000
v -2.000000 1.750544 1.000000
v -2.000000 1.750544 0.900000
v 2.000000 1.750544 -0.905000
v 1.902500 1.750544 0.900000
v 1.902500 1.750544 -0.905000
v -1.900000 1.750544 -1.000000
v 1.902500 1.750544 1.000000
v -1.900000 1.750544 0.900000
v -1.900000 1.750544 -0.905000
v -1.900000 1.750544 0.900000
v -1.900000 1.650505 0.900000
v -1.900000 1.650505 -0.905000
v -1.900000 1.750544 -0.905000
v 1.902500 1.650505 0.900000
v 1.902500 1.650505 -0.905000
v 1.902500 1.750544 0.900000
v 1.902500 1.750544 -0.905000
v -1.900000 1.650505 -0.905000
v -1.900000 1.750544 -0.905000
v 1.902500 1.650505 -0.905000
v 1.902500 1.750544 -0.905000
vt 0.375000 0.238125
vt 0.625000 0.238125
vt 0.625000 0.250000
vt 0.375000 0.250000
vt 0.375000 0.493906
vt 0.625000 0.493906
vt 0.625000 0.500000
vt 0.375000 0.500000
vt 0.375000 0.737500
vt 0.625000 0.737500
vt 0.625000 0.750000
vt 0.375000 0.750000
vt 0.375000 0.993750
vt 0.625000 0.993750
vt 0.625000 1.000000
vt 0.375000 1.000000
vt 0.368906 0.737500
vt 0.368906 0.750000
vt 0.625000 0.511875
vt 0.625000 0.500000
vt 0.625000 0.511875
vt 0.625000 0.012500
vt 0.625000 0.000000
vt 0.625000 0.000000
vt 0.625000 0.012500
vt 0.625000 0.012500
vt 0.625000 0.000000
vt 0.625000 0.756094
vt 0.625000 0.750000
vt 0.625000 0.756094
vt 0.625000 0.256250
vt 0.625000 0.250000
vt 0.625000 0.256250
vt 0.625000 0.238125
vt 0.625000 0.493906
vt 0.868750 0.511875
vt 0.631094 0.511875
vt 0.625000 0.737500
vt 0.368906 0.511875
vt 0.375000 0.511875
vt 0.375000 0.000000
vt 0.375000 0.012500
vt 0.368906 0.500000
vt 0.625000 0.756094
vt 0.625000 0.993750
vt 0.868750 0.737500
vt 0.631094 0.737500
vt 0.625000 1.000000
vt 0.625000 0.993750
vt 0.625000 1.000000
vt 0.125000 0.500000
vt 0.131250 0.500000
vt 0.131250 0.511875
vt 0.125000 0.511875
vt 0.131250 0.737500
vt 0.125000 0.737500
vt 0.868750 0.737500
vt 0.631094 0.737500
vt 0.631094 0.737500
vt 0.868750 0.737500
vt 0.625000 0.500000
vt 0.625000 0.511875
vt 0.131250 0.750000
vt 0.125000 0.750000
vt 0.375000 0.756094
vt 0.375000 0.256250
vt 0.625000 0.256250
vt 0.868750 0.511875
vt 0.868750 0.511875
vt 0.625000 0.737500
vt 0.625000 0.750000
vt 0.625000 0.493906
vt 0.631094 0.511875
vt 0.631094 0.737500
vt 0.631094 0.511875
vt 0.868750 0.511875
vt 0.868750 0.737500
vt 0.625000 0.993750
vt 0.625000 1.000000
vt 0.625000 0.250000
vt 0.625000 0.250000
vt 0.625000 0.256250
vt 0.625000 0.493906
vt 0.625000 0.737500
vt 0.625000 0.750000
vt 0.625000 0.500000
vt 0.625000 0.511875
vt 0.868750 0.511875
vt 0.868750 0.737500
vt 0.625000 0.238125
vt 0.625000 0.238125
vt 0.868750 0.737500
vt 0.875000 0.737500
vt 0.875000 0.750000
vt 0.868750 0.750000
vt 0.868750 0.511875
vt 0.875000 0.511875
vt 0.868750 0.500000
vt 0.875000 0.500000
vt 0.631094 0.500000
vt 0.631094 0.511875
vt 0.631094 0.737500
vt 0.631094 0.750000
vt 0.631094 0.737500
vt 0.868750 0.737500
vt 0.625000 0.756094
vt 0.625000 0.000000
vt 0.625000 0.012500
vt 0.631094 0.511875
vt 0.631094 0.511875
vt 0.631094 0.511875
vt 0.868750 0.511875
vt 0.631094 0.737500
vt 0.868750 0.511875
vt 0.631094 0.511875
vt 0.868750 0.511875
vt 0.631094 0.511875
vn -1.0000 0.0000 0.0000
vn 0.0000 0.0000 -1.0000
vn 1.0000 0.0000 0.0000
vn 0.0000 0.0000 1.0000
vn 0.0000 -1.0000 0.0000
vn 0.0000 1.0000 0.0000
usemtl None
s off
f 22/1/1 19/2/1 4/3/1 3/4/1
f 40/5/2 35/6/2 8/7/2 7/8/2
f 15/9/3 16/10/3 6/11/3 5/12/3
f 27/13/4 28/14/4 2/15/4 1/16/4
f 43/17/5 15/9/5 5/12/5 36/18/5
f 23/19/3 8/7/3 11/20/3 24/21/3
f 17/22/1 9/23/1 60/24/1 61/25/1
f 14/26/1 2/27/1 9/23/1 17/22/1
f 41/28/4 6/11/4 12/29/4 42/30/4
f 26/31/2 4/3/2 10/32/2 29/33/2
f 19/2/1 14/26/1 17/22/1 21/34/1
f 37/35/6 29/33/6 45/36/6 48/37/6
f 6/11/3 16/10/3 18/38/3 12/29/3
f 44/39/5 20/40/5 15/9/5 43/17/5
f 20/40/3 23/19/3 16/10/3 15/9/3
f 1/41/1 2/27/1 14/26/1 13/42/1
f 7/8/3 8/7/3 23/19/3 20/40/3
f 40/43/5 7/8/5 20/40/5 44/39/5
f 66/44/5 59/45/5 67/46/5 63/47/5
f 4/3/1 19/2/1 21/34/1 10/32/1
f 16/10/3 23/19/3 24/21/3 18/38/3
f 13/42/1 14/26/1 19/2/1 22/1/1
f 9/48/4 30/49/4 59/45/4 60/50/4
f 3/51/5 25/52/5 33/53/5 22/54/5
f 22/54/5 33/53/5 32/55/5 13/56/5
f 31/57/4 38/58/4 47/59/4 46/60/4
f 35/6/2 26/31/2 29/33/2 37/35/2
f 2/15/4 28/14/4 30/49/4 9/48/4
f 24/21/3 11/20/3 56/61/3 62/62/3
f 13/56/5 32/55/5 27/63/5 1/64/5
f 36/65/4 41/28/4 28/14/4 27/13/4
f 3/4/2 4/3/2 26/31/2 25/66/2
f 5/12/4 6/11/4 41/28/4 36/65/4
f 29/33/3 65/67/3 68/68/3 34/69/3
f 8/7/2 35/6/2 37/35/2 11/20/2
f 12/29/3 18/38/3 57/70/3 58/71/3
f 11/20/2 37/35/2 55/72/2 56/61/2
f 25/52/5 40/43/5 44/39/5 33/53/5
f 33/53/5 44/39/5 43/17/5 32/55/5
f 28/14/4 41/28/4 42/30/4 30/49/4
f 32/55/5 43/17/5 36/18/5 27/63/5
f 25/66/2 26/31/2 35/6/2 40/5/2
f 47/59/1 48/37/1 52/73/1 51/74/1
f 34/69/4 31/57/4 46/60/4 45/36/4
f 39/75/4 34/69/4 45/36/4 48/37/4
f 38/58/4 39/75/4 48/37/4 47/59/4
f 52/73/6 49/76/6 50/77/6 51/74/6
f 46/60/2 47/59/2 51/74/2 50/77/2
f 48/37/4 45/36/4 49/76/4 52/73/4
f 45/36/3 46/60/3 50/77/3 49/76/3
f 60/50/4 59/45/4 75/78/4 76/79/4
f 65/67/2 54/80/2 70/81/2 81/82/2
f 55/72/2 65/67/2 81/82/2 71/83/2
f 58/71/3 57/70/3 73/84/3 74/85/3
f 56/61/2 55/72/2 71/83/2 72/86/2
f 62/62/3 56/61/3 72/86/3 78/87/3
f 67/46/4 68/68/4 87/88/4 86/89/4
f 54/80/1 53/90/1 69/91/1 70/81/1
f 31/57/2 17/22/2 61/25/2 67/46/2
f 17/22/6 46/60/6 45/36/6 21/34/6
f 29/33/2 10/32/2 54/80/2 65/67/2
f 42/30/4 12/29/4 58/71/4 66/44/4
f 61/25/5 53/90/5 68/68/5 67/46/5
f 10/32/1 21/34/1 53/90/1 54/80/1
f 59/45/3 30/49/3 31/57/3 67/46/3
f 34/69/4 68/68/4 53/90/4 21/34/4
f 83/92/6 77/93/6 76/94/6 75/95/6
f 84/96/6 69/97/6 77/93/6 83/92/6
f 81/98/6 70/99/6 69/97/6 84/96/6
f 71/100/6 81/98/6 84/96/6 80/101/6
f 79/102/6 83/92/6 75/95/6 82/103/6
f 73/84/6 79/102/6 82/103/6 74/85/6
f 78/87/6 80/101/6 79/102/6 73/84/6
f 72/86/6 71/100/6 80/101/6 78/87/6
f 83/92/4 79/102/4 91/104/4 85/105/4
f 59/45/4 66/44/4 82/106/4 75/78/4
f 61/25/1 60/24/1 76/107/1 77/108/1
f 68/68/4 64/109/4 90/110/4 87/88/4
f 57/70/3 62/62/3 78/87/3 73/84/3
f 66/44/4 58/71/4 74/85/4 82/106/4
f 53/90/1 61/25/1 77/108/1 69/91/1
f 79/102/4 80/101/4 92/111/4 91/104/4
f 46/60/6 30/49/6 42/30/6 47/59/6
f 38/58/1 42/30/1 66/44/1 63/47/1
f 55/72/5 64/109/5 68/68/5 65/67/5
f 55/72/1 37/35/1 39/75/1 64/109/1
f 57/70/5 63/47/5 64/109/5 62/62/5
f 18/38/2 38/58/2 63/47/2 57/70/2
f 47/59/6 18/38/6 24/21/6 48/37/6
f 62/62/4 64/109/4 39/75/4 24/21/4
f 86/89/3 87/88/3 88/112/3 85/105/3
f 89/113/2 86/89/2 85/105/2 91/104/2
f 92/111/4 88/112/4 94/114/4 96/115/4
f 90/110/1 89/113/1 91/104/1 92/111/1
f 64/109/4 63/47/4 89/113/4 90/110/4
f 80/101/4 84/96/4 88/112/4 92/111/4
f 63/47/4 67/46/4 86/89/4 89/113/4
f 84/96/4 83/92/4 85/105/4 88/112/4
f 93/116/4 95/117/4 96/115/4 94/114/4
f 87/88/4 90/110/4 95/117/4 93/116/4
f 88/112/4 87/88/4 93/116/4 94/114/4
f 90/110/4 92/111/4 96/115/4 95/117/4
